<?xml version="1.0" encoding="utf-8"?>
<!DOCTYPE svg PUBLIC "-//W3C//DTD SVG 1.0//EN" "http://www.w3.org/TR/2001/REC-SVG-20010904/DTD/svg10.dtd">

<svg
xmlns="http://www.w3.org/2000/svg"
xmlns:xlink="http://www.w3.org/1999/xlink"
xmlns:ev="http://www.w3.org/2001/xml-events"
version="1.1"
baseProfile="full">
<g stroke-width="1px" stroke="black" fill="white">
<rect width="10" height="10" x="0" y="0" fill="blue"/>
<rect width="10" height="10" x="10" y="0" fill="white"/>
<rect width="10" height="10" x="20" y="0" fill="white"/>
<rect width="10" height="10" x="30" y="0" fill="white"/>
<rect width="10" height="10" x="40" y="0" fill="white"/>
<rect width="10" height="10" x="50" y="0" fill="white"/>
<rect width="10" height="10" x="60" y="0" fill="white"/>
<rect width="10" height="10" x="70" y="0" fill="white"/>
<rect width="10" height="10" x="80" y="0" fill="white"/>
<rect width="10" height="10" x="90" y="0" fill="white"/>
<rect width="10" height="10" x="100" y="0" fill="white"/>
<rect width="10" height="10" x="110" y="0" fill="white"/>
<rect width="10" height="10" x="120" y="0" fill="white"/>
<rect width="10" height="10" x="130" y="0" fill="white"/>
<rect width="10" height="10" x="0" y="10" fill="blue"/>
<rect width="10" height="10" x="10" y="10" fill="yellow"/>
<rect width="10" height="10" x="20" y="10" fill="white"/>
<rect width="10" height="10" x="30" y="10" fill="white"/>
<rect width="10" height="10" x="40" y="10" fill="white"/>
<rect width="10" height="10" x="50" y="10" fill="white"/>
<rect width="10" height="10" x="60" y="10" fill="white"/>
<rect width="10" height="10" x="70" y="10" fill="white"/>
<rect width="10" height="10" x="80" y="10" fill="white"/>
<rect width="10" height="10" x="90" y="10" fill="white"/>
<rect width="10" height="10" x="100" y="10" fill="white"/>
<rect width="10" height="10" x="110" y="10" fill="white"/>
<rect width="10" height="10" x="120" y="10" fill="white"/>
<rect width="10" height="10" x="130" y="10" fill="white"/>
<rect width="10" height="10" x="0" y="20" fill="blue"/>
<rect width="10" height="10" x="10" y="20" fill="yellow"/>
<rect width="10" height="10" x="20" y="20" fill="blue"/>
<rect width="10" height="10" x="30" y="20" fill="white"/>
<rect width="10" height="10" x="40" y="20" fill="white"/>
<rect width="10" height="10" x="50" y="20" fill="white"/>
<rect width="10" height="10" x="60" y="20" fill="white"/>
<rect width="10" height="10" x="70" y="20" fill="white"/>
<rect width="10" height="10" x="80" y="20" fill="white"/>
<rect width="10" height="10" x="90" y="20" fill="white"/>
<rect width="10" height="10" x="100" y="20" fill="white"/>
<rect width="10" height="10" x="110" y="20" fill="white"/>
<rect width="10" height="10" x="120" y="20" fill="white"/>
<rect width="10" height="10" x="130" y="20" fill="white"/>
<rect width="10" height="10" x="0" y="30" fill="blue"/>
<rect width="10" height="10" x="10" y="30" fill="yellow"/>
<rect width="10" height="10" x="20" y="30" fill="white"/>
<rect width="10" height="10" x="30" y="30" fill="yellow"/>
<rect width="10" height="10" x="40" y="30" fill="white"/>
<rect width="10" height="10" x="50" y="30" fill="white"/>
<rect width="10" height="10" x="60" y="30" fill="white"/>
<rect width="10" height="10" x="70" y="30" fill="white"/>
<rect width="10" height="10" x="80" y="30" fill="white"/>
<rect width="10" height="10" x="90" y="30" fill="white"/>
<rect width="10" height="10" x="100" y="30" fill="white"/>
<rect width="10" height="10" x="110" y="30" fill="white"/>
<rect width="10" height="10" x="120" y="30" fill="white"/>
<rect width="10" height="10" x="130" y="30" fill="white"/>
<rect width="10" height="10" x="0" y="40" fill="blue"/>
<rect width="10" height="10" x="10" y="40" fill="yellow"/>
<rect width="10" height="10" x="20" y="40" fill="blue"/>
<rect width="10" height="10" x="30" y="40" fill="white"/>
<rect width="10" height="10" x="40" y="40" fill="blue"/>
<rect width="10" height="10" x="50" y="40" fill="white"/>
<rect width="10" height="10" x="60" y="40" fill="white"/>
<rect width="10" height="10" x="70" y="40" fill="white"/>
<rect width="10" height="10" x="80" y="40" fill="white"/>
<rect width="10" height="10" x="90" y="40" fill="white"/>
<rect width="10" height="10" x="100" y="40" fill="white"/>
<rect width="10" height="10" x="110" y="40" fill="white"/>
<rect width="10" height="10" x="120" y="40" fill="white"/>
<rect width="10" height="10" x="130" y="40" fill="white"/>
<rect width="10" height="10" x="0" y="50" fill="blue"/>
<rect width="10" height="10" x="10" y="50" fill="yellow"/>
<rect width="10" height="10" x="20" y="50" fill="white"/>
<rect width="10" height="10" x="30" y="50" fill="yellow"/>
<rect width="10" height="10" x="40" y="50" fill="yellow"/>
<rect width="10" height="10" x="50" y="50" fill="yellow"/>
<rect width="10" height="10" x="60" y="50" fill="white"/>
<rect width="10" height="10" x="70" y="50" fill="white"/>
<rect width="10" height="10" x="80" y="50" fill="white"/>
<rect width="10" height="10" x="90" y="50" fill="white"/>
<rect width="10" height="10" x="100" y="50" fill="white"/>
<rect width="10" height="10" x="110" y="50" fill="white"/>
<rect width="10" height="10" x="120" y="50" fill="white"/>
<rect width="10" height="10" x="130" y="50" fill="white"/>
<rect width="10" height="10" x="0" y="60" fill="blue"/>
<rect width="10" height="10" x="10" y="60" fill="yellow"/>
<rect width="10" height="10" x="20" y="60" fill="blue"/>
<rect width="10" height="10" x="30" y="60" fill="white"/>
<rect width="10" height="10" x="40" y="60" fill="blue"/>
<rect width="10" height="10" x="50" y="60" fill="green"/>
<rect width="10" height="10" x="60" y="60" fill="blue"/>
<rect width="10" height="10" x="70" y="60" fill="white"/>
<rect width="10" height="10" x="80" y="60" fill="white"/>
<rect width="10" height="10" x="90" y="60" fill="white"/>
<rect width="10" height="10" x="100" y="60" fill="white"/>
<rect width="10" height="10" x="110" y="60" fill="white"/>
<rect width="10" height="10" x="120" y="60" fill="white"/>
<rect width="10" height="10" x="130" y="60" fill="white"/>
<rect width="10" height="10" x="0" y="70" fill="blue"/>
<rect width="10" height="10" x="10" y="70" fill="yellow"/>
<rect width="10" height="10" x="20" y="70" fill="white"/>
<rect width="10" height="10" x="30" y="70" fill="yellow"/>
<rect width="10" height="10" x="40" y="70" fill="yellow"/>
<rect width="10" height="10" x="50" y="70" fill="yellow"/>
<rect width="10" height="10" x="60" y="70" fill="green"/>
<rect width="10" height="10" x="70" y="70" fill="yellow"/>
<rect width="10" height="10" x="80" y="70" fill="white"/>
<rect width="10" height="10" x="90" y="70" fill="white"/>
<rect width="10" height="10" x="100" y="70" fill="white"/>
<rect width="10" height="10" x="110" y="70" fill="white"/>
<rect width="10" height="10" x="120" y="70" fill="white"/>
<rect width="10" height="10" x="130" y="70" fill="white"/>
<rect width="10" height="10" x="0" y="80" fill="blue"/>
<rect width="10" height="10" x="10" y="80" fill="yellow"/>
<rect width="10" height="10" x="20" y="80" fill="blue"/>
<rect width="10" height="10" x="30" y="80" fill="white"/>
<rect width="10" height="10" x="40" y="80" fill="blue"/>
<rect width="10" height="10" x="50" y="80" fill="green"/>
<rect width="10" height="10" x="60" y="80" fill="blue"/>
<rect width="10" height="10" x="70" y="80" fill="green"/>
<rect width="10" height="10" x="80" y="80" fill="blue"/>
<rect width="10" height="10" x="90" y="80" fill="white"/>
<rect width="10" height="10" x="100" y="80" fill="white"/>
<rect width="10" height="10" x="110" y="80" fill="white"/>
<rect width="10" height="10" x="120" y="80" fill="white"/>
<rect width="10" height="10" x="130" y="80" fill="white"/>
<rect width="10" height="10" x="0" y="90" fill="blue"/>
<rect width="10" height="10" x="10" y="90" fill="yellow"/>
<rect width="10" height="10" x="20" y="90" fill="white"/>
<rect width="10" height="10" x="30" y="90" fill="yellow"/>
<rect width="10" height="10" x="40" y="90" fill="yellow"/>
<rect width="10" height="10" x="50" y="90" fill="yellow"/>
<rect width="10" height="10" x="60" y="90" fill="green"/>
<rect width="10" height="10" x="70" y="90" fill="yellow"/>
<rect width="10" height="10" x="80" y="90" fill="green"/>
<rect width="10" height="10" x="90" y="90" fill="yellow"/>
<rect width="10" height="10" x="100" y="90" fill="white"/>
<rect width="10" height="10" x="110" y="90" fill="white"/>
<rect width="10" height="10" x="120" y="90" fill="white"/>
<rect width="10" height="10" x="130" y="90" fill="white"/>
<rect width="10" height="10" x="0" y="100" fill="blue"/>
<rect width="10" height="10" x="10" y="100" fill="yellow"/>
<rect width="10" height="10" x="20" y="100" fill="blue"/>
<rect width="10" height="10" x="30" y="100" fill="white"/>
<rect width="10" height="10" x="40" y="100" fill="blue"/>
<rect width="10" height="10" x="50" y="100" fill="green"/>
<rect width="10" height="10" x="60" y="100" fill="blue"/>
<rect width="10" height="10" x="70" y="100" fill="yellow"/>
<rect width="10" height="10" x="80" y="100" fill="blue"/>
<rect width="10" height="10" x="90" y="100" fill="green"/>
<rect width="10" height="10" x="100" y="100" fill="blue"/>
<rect width="10" height="10" x="110" y="100" fill="white"/>
<rect width="10" height="10" x="120" y="100" fill="white"/>
<rect width="10" height="10" x="130" y="100" fill="white"/>
<rect width="10" height="10" x="0" y="110" fill="blue"/>
<rect width="10" height="10" x="10" y="110" fill="yellow"/>
<rect width="10" height="10" x="20" y="110" fill="white"/>
<rect width="10" height="10" x="30" y="110" fill="yellow"/>
<rect width="10" height="10" x="40" y="110" fill="yellow"/>
<rect width="10" height="10" x="50" y="110" fill="yellow"/>
<rect width="10" height="10" x="60" y="110" fill="green"/>
<rect width="10" height="10" x="70" y="110" fill="yellow"/>
<rect width="10" height="10" x="80" y="110" fill="white"/>
<rect width="10" height="10" x="90" y="110" fill="yellow"/>
<rect width="10" height="10" x="100" y="110" fill="green"/>
<rect width="10" height="10" x="110" y="110" fill="yellow"/>
<rect width="10" height="10" x="120" y="110" fill="white"/>
<rect width="10" height="10" x="130" y="110" fill="white"/>
<rect width="10" height="10" x="0" y="120" fill="blue"/>
<rect width="10" height="10" x="10" y="120" fill="yellow"/>
<rect width="10" height="10" x="20" y="120" fill="blue"/>
<rect width="10" height="10" x="30" y="120" fill="white"/>
<rect width="10" height="10" x="40" y="120" fill="blue"/>
<rect width="10" height="10" x="50" y="120" fill="green"/>
<rect width="10" height="10" x="60" y="120" fill="blue"/>
<rect width="10" height="10" x="70" y="120" fill="green"/>
<rect width="10" height="10" x="80" y="120" fill="blue"/>
<rect width="10" height="10" x="90" y="120" fill="white"/>
<rect width="10" height="10" x="100" y="120" fill="blue"/>
<rect width="10" height="10" x="110" y="120" fill="green"/>
<rect width="10" height="10" x="120" y="120" fill="blue"/>
<rect width="10" height="10" x="130" y="120" fill="white"/>
<rect width="10" height="10" x="0" y="130" fill="blue"/>
<rect width="10" height="10" x="10" y="130" fill="yellow"/>
<rect width="10" height="10" x="20" y="130" fill="white"/>
<rect width="10" height="10" x="30" y="130" fill="yellow"/>
<rect width="10" height="10" x="40" y="130" fill="yellow"/>
<rect width="10" height="10" x="50" y="130" fill="yellow"/>
<rect width="10" height="10" x="60" y="130" fill="green"/>
<rect width="10" height="10" x="70" y="130" fill="yellow"/>
<rect width="10" height="10" x="80" y="130" fill="green"/>
<rect width="10" height="10" x="90" y="130" fill="yellow"/>
<rect width="10" height="10" x="100" y="130" fill="yellow"/>
<rect width="10" height="10" x="110" y="130" fill="yellow"/>
<rect width="10" height="10" x="120" y="130" fill="green"/>
<rect width="10" height="10" x="130" y="130" fill="blue"/>
<rect width="10" height="10" x="0" y="140" fill="blue"/>
<rect width="10" height="10" x="10" y="140" fill="yellow"/>
<rect width="10" height="10" x="20" y="140" fill="blue"/>
<rect width="10" height="10" x="30" y="140" fill="white"/>
<rect width="10" height="10" x="40" y="140" fill="blue"/>
<rect width="10" height="10" x="50" y="140" fill="green"/>
<rect width="10" height="10" x="60" y="140" fill="blue"/>
<rect width="10" height="10" x="70" y="140" fill="yellow"/>
<rect width="10" height="10" x="80" y="140" fill="blue"/>
<rect width="10" height="10" x="90" y="140" fill="green"/>
<rect width="10" height="10" x="100" y="140" fill="blue"/>
<rect width="10" height="10" x="110" y="140" fill="green"/>
<rect width="10" height="10" x="120" y="140" fill="yellow"/>
<rect width="10" height="10" x="130" y="140" fill="blue"/>
<rect width="10" height="10" x="0" y="150" fill="blue"/>
<rect width="10" height="10" x="10" y="150" fill="yellow"/>
<rect width="10" height="10" x="20" y="150" fill="white"/>
<rect width="10" height="10" x="30" y="150" fill="yellow"/>
<rect width="10" height="10" x="40" y="150" fill="yellow"/>
<rect width="10" height="10" x="50" y="150" fill="yellow"/>
<rect width="10" height="10" x="60" y="150" fill="green"/>
<rect width="10" height="10" x="70" y="150" fill="yellow"/>
<rect width="10" height="10" x="80" y="150" fill="white"/>
<rect width="10" height="10" x="90" y="150" fill="yellow"/>
<rect width="10" height="10" x="100" y="150" fill="green"/>
<rect width="10" height="10" x="110" y="150" fill="blue"/>
<rect width="10" height="10" x="120" y="150" fill="white"/>
<rect width="10" height="10" x="130" y="150" fill="green"/>
<rect width="10" height="10" x="0" y="160" fill="blue"/>
<rect width="10" height="10" x="10" y="160" fill="yellow"/>
<rect width="10" height="10" x="20" y="160" fill="blue"/>
<rect width="10" height="10" x="30" y="160" fill="white"/>
<rect width="10" height="10" x="40" y="160" fill="blue"/>
<rect width="10" height="10" x="50" y="160" fill="green"/>
<rect width="10" height="10" x="60" y="160" fill="blue"/>
<rect width="10" height="10" x="70" y="160" fill="green"/>
<rect width="10" height="10" x="80" y="160" fill="blue"/>
<rect width="10" height="10" x="90" y="160" fill="white"/>
<rect width="10" height="10" x="100" y="160" fill="yellow"/>
<rect width="10" height="10" x="110" y="160" fill="green"/>
<rect width="10" height="10" x="120" y="160" fill="yellow"/>
<rect width="10" height="10" x="130" y="160" fill="yellow"/>
<rect width="10" height="10" x="0" y="170" fill="blue"/>
<rect width="10" height="10" x="10" y="170" fill="yellow"/>
<rect width="10" height="10" x="20" y="170" fill="white"/>
<rect width="10" height="10" x="30" y="170" fill="yellow"/>
<rect width="10" height="10" x="40" y="170" fill="yellow"/>
<rect width="10" height="10" x="50" y="170" fill="yellow"/>
<rect width="10" height="10" x="60" y="170" fill="green"/>
<rect width="10" height="10" x="70" y="170" fill="yellow"/>
<rect width="10" height="10" x="80" y="170" fill="green"/>
<rect width="10" height="10" x="90" y="170" fill="blue"/>
<rect width="10" height="10" x="100" y="170" fill="white"/>
<rect width="10" height="10" x="110" y="170" fill="blue"/>
<rect width="10" height="10" x="120" y="170" fill="green"/>
<rect width="10" height="10" x="130" y="170" fill="blue"/>
<rect width="10" height="10" x="0" y="180" fill="blue"/>
<rect width="10" height="10" x="10" y="180" fill="yellow"/>
<rect width="10" height="10" x="20" y="180" fill="blue"/>
<rect width="10" height="10" x="30" y="180" fill="white"/>
<rect width="10" height="10" x="40" y="180" fill="blue"/>
<rect width="10" height="10" x="50" y="180" fill="green"/>
<rect width="10" height="10" x="60" y="180" fill="blue"/>
<rect width="10" height="10" x="70" y="180" fill="yellow"/>
<rect width="10" height="10" x="80" y="180" fill="yellow"/>
<rect width="10" height="10" x="90" y="180" fill="green"/>
<rect width="10" height="10" x="100" y="180" fill="yellow"/>
<rect width="10" height="10" x="110" y="180" fill="yellow"/>
<rect width="10" height="10" x="120" y="180" fill="yellow"/>
<rect width="10" height="10" x="130" y="180" fill="blue"/>
<rect width="10" height="10" x="0" y="190" fill="blue"/>
<rect width="10" height="10" x="10" y="190" fill="yellow"/>
<rect width="10" height="10" x="20" y="190" fill="white"/>
<rect width="10" height="10" x="30" y="190" fill="yellow"/>
<rect width="10" height="10" x="40" y="190" fill="yellow"/>
<rect width="10" height="10" x="50" y="190" fill="yellow"/>
<rect width="10" height="10" x="60" y="190" fill="green"/>
<rect width="10" height="10" x="70" y="190" fill="blue"/>
<rect width="10" height="10" x="80" y="190" fill="green"/>
<rect width="10" height="10" x="90" y="190" fill="blue"/>
<rect width="10" height="10" x="100" y="190" fill="green"/>
<rect width="10" height="10" x="110" y="190" fill="blue"/>
<rect width="10" height="10" x="120" y="190" fill="yellow"/>
<rect width="10" height="10" x="130" y="190" fill="green"/>
<rect width="10" height="10" x="0" y="200" fill="blue"/>
<rect width="10" height="10" x="10" y="200" fill="yellow"/>
<rect width="10" height="10" x="20" y="200" fill="blue"/>
<rect width="10" height="10" x="30" y="200" fill="white"/>
<rect width="10" height="10" x="40" y="200" fill="blue"/>
<rect width="10" height="10" x="50" y="200" fill="green"/>
<rect width="10" height="10" x="60" y="200" fill="yellow"/>
<rect width="10" height="10" x="70" y="200" fill="green"/>
<rect width="10" height="10" x="80" y="200" fill="yellow"/>
<rect width="10" height="10" x="90" y="200" fill="green"/>
<rect width="10" height="10" x="100" y="200" fill="yellow"/>
<rect width="10" height="10" x="110" y="200" fill="green"/>
<rect width="10" height="10" x="120" y="200" fill="green"/>
<rect width="10" height="10" x="130" y="200" fill="green"/>
<rect width="10" height="10" x="0" y="210" fill="blue"/>
<rect width="10" height="10" x="10" y="210" fill="yellow"/>
<rect width="10" height="10" x="20" y="210" fill="white"/>
<rect width="10" height="10" x="30" y="210" fill="yellow"/>
<rect width="10" height="10" x="40" y="210" fill="yellow"/>
<rect width="10" height="10" x="50" y="210" fill="blue"/>
<rect width="10" height="10" x="60" y="210" fill="yellow"/>
<rect width="10" height="10" x="70" y="210" fill="blue"/>
<rect width="10" height="10" x="80" y="210" fill="yellow"/>
<rect width="10" height="10" x="90" y="210" fill="blue"/>
<rect width="10" height="10" x="100" y="210" fill="yellow"/>
<rect width="10" height="10" x="110" y="210" fill="blue"/>
<rect width="10" height="10" x="120" y="210" fill="green"/>
<rect width="10" height="10" x="130" y="210" fill="green"/>
<rect width="10" height="10" x="0" y="220" fill="blue"/>
<rect width="10" height="10" x="10" y="220" fill="yellow"/>
<rect width="10" height="10" x="20" y="220" fill="blue"/>
<rect width="10" height="10" x="30" y="220" fill="white"/>
<rect width="10" height="10" x="40" y="220" fill="yellow"/>
<rect width="10" height="10" x="50" y="220" fill="white"/>
<rect width="10" height="10" x="60" y="220" fill="yellow"/>
<rect width="10" height="10" x="70" y="220" fill="white"/>
<rect width="10" height="10" x="80" y="220" fill="yellow"/>
<rect width="10" height="10" x="90" y="220" fill="white"/>
<rect width="10" height="10" x="100" y="220" fill="yellow"/>
<rect width="10" height="10" x="110" y="220" fill="white"/>
<rect width="10" height="10" x="120" y="220" fill="yellow"/>
<rect width="10" height="10" x="130" y="220" fill="green"/>
<rect width="10" height="10" x="0" y="230" fill="blue"/>
<rect width="10" height="10" x="10" y="230" fill="yellow"/>
<rect width="10" height="10" x="20" y="230" fill="white"/>
<rect width="10" height="10" x="30" y="230" fill="blue"/>
<rect width="10" height="10" x="40" y="230" fill="white"/>
<rect width="10" height="10" x="50" y="230" fill="blue"/>
<rect width="10" height="10" x="60" y="230" fill="white"/>
<rect width="10" height="10" x="70" y="230" fill="blue"/>
<rect width="10" height="10" x="80" y="230" fill="white"/>
<rect width="10" height="10" x="90" y="230" fill="blue"/>
<rect width="10" height="10" x="100" y="230" fill="white"/>
<rect width="10" height="10" x="110" y="230" fill="blue"/>
<rect width="10" height="10" x="120" y="230" fill="white"/>
<rect width="10" height="10" x="130" y="230" fill="green"/>
<rect width="10" height="10" x="0" y="240" fill="blue"/>
<rect width="10" height="10" x="10" y="240" fill="yellow"/>
<rect width="10" height="10" x="20" y="240" fill="yellow"/>
<rect width="10" height="10" x="30" y="240" fill="yellow"/>
<rect width="10" height="10" x="40" y="240" fill="yellow"/>
<rect width="10" height="10" x="50" y="240" fill="yellow"/>
<rect width="10" height="10" x="60" y="240" fill="yellow"/>
<rect width="10" height="10" x="70" y="240" fill="yellow"/>
<rect width="10" height="10" x="80" y="240" fill="yellow"/>
<rect width="10" height="10" x="90" y="240" fill="yellow"/>
<rect width="10" height="10" x="100" y="240" fill="yellow"/>
<rect width="10" height="10" x="110" y="240" fill="yellow"/>
<rect width="10" height="10" x="120" y="240" fill="yellow"/>
<rect width="10" height="10" x="130" y="240" fill="yellow"/>
<rect width="10" height="10" x="0" y="250" fill="blue"/>
<rect width="10" height="10" x="10" y="250" fill="blue"/>
<rect width="10" height="10" x="20" y="250" fill="blue"/>
<rect width="10" height="10" x="30" y="250" fill="blue"/>
<rect width="10" height="10" x="40" y="250" fill="blue"/>
<rect width="10" height="10" x="50" y="250" fill="blue"/>
<rect width="10" height="10" x="60" y="250" fill="blue"/>
<rect width="10" height="10" x="70" y="250" fill="blue"/>
<rect width="10" height="10" x="80" y="250" fill="blue"/>
<rect width="10" height="10" x="90" y="250" fill="blue"/>
<rect width="10" height="10" x="100" y="250" fill="blue"/>
<rect width="10" height="10" x="110" y="250" fill="blue"/>
<rect width="10" height="10" x="120" y="250" fill="blue"/>
<rect width="10" height="10" x="130" y="250" fill="blue"/>
<rect width="10" height="10" x="0" y="260" fill="red"/>
<rect width="10" height="10" x="10" y="260" fill="red"/>
<rect width="10" height="10" x="20" y="260" fill="red"/>
<rect width="10" height="10" x="30" y="260" fill="red"/>
<rect width="10" height="10" x="40" y="260" fill="red"/>
<rect width="10" height="10" x="50" y="260" fill="red"/>
<rect width="10" height="10" x="60" y="260" fill="red"/>
<rect width="10" height="10" x="70" y="260" fill="red"/>
<rect width="10" height="10" x="80" y="260" fill="red"/>
<rect width="10" height="10" x="90" y="260" fill="red"/>
<rect width="10" height="10" x="100" y="260" fill="red"/>
<rect width="10" height="10" x="110" y="260" fill="red"/>
<rect width="10" height="10" x="120" y="260" fill="red"/>
<rect width="10" height="10" x="130" y="260" fill="red"/>
</g> </svg>
